<svg width="40" height="34" viewBox="0 0 40 34" fill="none" xmlns="http://www.w3.org/2000/svg">
<path d="M16.9199 12.228C16.4622 12.8836 15.8221 13.3753 14.9995 13.7031C14.1831 14.0247 13.2306 14.1855 12.1421 14.1855C11.0412 14.1855 10.064 13.9289 9.21045 13.4155C8.35693 12.896 7.69515 12.16 7.2251 11.2075C6.76123 10.255 6.52311 9.15104 6.51074 7.89551V6.71729C6.51074 4.68245 6.98389 3.10531 7.93018 1.98584C8.88265 0.866374 10.2186 0.306641 11.938 0.306641C13.3481 0.306641 14.4831 0.668457 15.3428 1.39209C16.2025 2.10954 16.7282 3.13005 16.9199 4.45361H15.1387C14.8047 2.66618 13.7409 1.77246 11.9473 1.77246C10.7536 1.77246 9.84749 2.19303 9.229 3.03418C8.6167 3.86914 8.30745 5.08138 8.30127 6.6709V7.7749C8.30127 9.2902 8.64762 10.4963 9.34033 11.3931C10.033 12.2837 10.9701 12.729 12.1514 12.729C12.8193 12.729 13.4038 12.6548 13.9048 12.5063C14.4058 12.3579 14.8201 12.1074 15.1479 11.7549V8.72119H12.0215V7.27393H16.9199V12.228ZM23.7944 14.1855C22.4338 14.1855 21.3267 13.7402 20.4731 12.8496C19.6196 11.9528 19.1929 10.756 19.1929 9.25928V8.94385C19.1929 7.94808 19.3815 7.06055 19.7588 6.28125C20.1423 5.49577 20.6742 4.88346 21.3545 4.44434C22.041 3.99902 22.7832 3.77637 23.5811 3.77637C24.8861 3.77637 25.9004 4.20622 26.624 5.06592C27.3477 5.92562 27.7095 7.15641 27.7095 8.7583V9.47266H20.9092C20.9339 10.4622 21.2215 11.2632 21.772 11.8755C22.3286 12.4816 23.0337 12.7847 23.8872 12.7847C24.4933 12.7847 25.0067 12.661 25.4272 12.4136C25.8478 12.1662 26.2158 11.8384 26.5312 11.4302L27.5796 12.2466C26.7384 13.5392 25.4767 14.1855 23.7944 14.1855ZM23.5811 5.18652C22.8883 5.18652 22.307 5.4401 21.8369 5.94727C21.3669 6.44824 21.0762 7.15332 20.9648 8.0625H25.9932V7.93262C25.9437 7.06055 25.7087 6.38639 25.2881 5.91016C24.8675 5.42773 24.2985 5.18652 23.5811 5.18652ZM32.0327 1.53125V3.96191H33.9067V5.28857H32.0327V11.5137C32.0327 11.9157 32.1162 12.2188 32.2832 12.4229C32.4502 12.6208 32.7347 12.7197 33.1367 12.7197C33.3346 12.7197 33.6068 12.6826 33.9531 12.6084V14C33.5016 14.1237 33.0625 14.1855 32.6357 14.1855C31.8688 14.1855 31.2905 13.9536 30.9009 13.4897C30.5112 13.0259 30.3164 12.3672 30.3164 11.5137V5.28857H28.4888V3.96191H30.3164V1.53125H32.0327ZM5.21875 31.0078L8.46875 21.625H10.1094L5.89062 33H4.5625L0.351562 21.625H1.98438L5.21875 31.0078ZM16.2734 33C16.1901 32.8333 16.1224 32.5365 16.0703 32.1094C15.3984 32.8073 14.5964 33.1562 13.6641 33.1562C12.8307 33.1562 12.1458 32.9219 11.6094 32.4531C11.0781 31.9792 10.8125 31.3802 10.8125 30.6562C10.8125 29.776 11.1458 29.0938 11.8125 28.6094C12.4844 28.1198 13.4271 27.875 14.6406 27.875H16.0469V27.2109C16.0469 26.7057 15.8958 26.3047 15.5938 26.0078C15.2917 25.7057 14.8464 25.5547 14.2578 25.5547C13.7422 25.5547 13.3099 25.6849 12.9609 25.9453C12.612 26.2057 12.4375 26.5208 12.4375 26.8906H10.9844C10.9844 26.4688 11.1328 26.0625 11.4297 25.6719C11.7318 25.276 12.138 24.9635 12.6484 24.7344C13.1641 24.5052 13.7292 24.3906 14.3438 24.3906C15.3177 24.3906 16.0807 24.6354 16.6328 25.125C17.1849 25.6094 17.4714 26.2786 17.4922 27.1328V31.0234C17.4922 31.7995 17.5911 32.4167 17.7891 32.875V33H16.2734ZM13.875 31.8984C14.3281 31.8984 14.7578 31.7812 15.1641 31.5469C15.5703 31.3125 15.8646 31.0078 16.0469 30.6328V28.8984H14.9141C13.1432 28.8984 12.2578 29.4167 12.2578 30.4531C12.2578 30.9062 12.4089 31.2604 12.7109 31.5156C13.013 31.7708 13.401 31.8984 13.875 31.8984ZM21.3281 33H19.8828V21H21.3281V33ZM28.8672 32.1641C28.3047 32.8255 27.4792 33.1562 26.3906 33.1562C25.4896 33.1562 24.8021 32.8958 24.3281 32.375C23.8594 31.849 23.6224 31.0729 23.6172 30.0469V24.5469H25.0625V30.0078C25.0625 31.2891 25.5833 31.9297 26.625 31.9297C27.7292 31.9297 28.4635 31.5182 28.8281 30.6953V24.5469H30.2734V33H28.8984L28.8672 32.1641ZM35.9844 33.1562C34.8385 33.1562 33.9062 32.7812 33.1875 32.0312C32.4688 31.276 32.1094 30.2682 32.1094 29.0078V28.7422C32.1094 27.9036 32.2682 27.1562 32.5859 26.5C32.9089 25.8385 33.3568 25.3229 33.9297 24.9531C34.5078 24.5781 35.1328 24.3906 35.8047 24.3906C36.9036 24.3906 37.7578 24.7526 38.3672 25.4766C38.9766 26.2005 39.2812 27.237 39.2812 28.5859V29.1875H33.5547C33.5755 30.0208 33.8177 30.6953 34.2812 31.2109C34.75 31.7214 35.3438 31.9766 36.0625 31.9766C36.5729 31.9766 37.0052 31.8724 37.3594 31.6641C37.7135 31.4557 38.0234 31.1797 38.2891 30.8359L39.1719 31.5234C38.4635 32.612 37.401 33.1562 35.9844 33.1562ZM35.8047 25.5781C35.2214 25.5781 34.7318 25.7917 34.3359 26.2188C33.9401 26.6406 33.6953 27.2344 33.6016 28H37.8359V27.8906C37.7943 27.1562 37.5964 26.5885 37.2422 26.1875C36.888 25.7812 36.4089 25.5781 35.8047 25.5781Z" fill="black"/>
</svg>
